<?xml version="1.0" encoding="UTF-8" standalone="no"?>
<svg
   xmlns:osb="http://www.openswatchbook.org/uri/2009/osb"
   xmlns:dc="http://purl.org/dc/elements/1.1/"
   xmlns:cc="http://creativecommons.org/ns#"
   xmlns:rdf="http://www.w3.org/1999/02/22-rdf-syntax-ns#"
   xmlns:svg="http://www.w3.org/2000/svg"
   xmlns="http://www.w3.org/2000/svg"
   xmlns:sodipodi="http://sodipodi.sourceforge.net/DTD/sodipodi-0.dtd"
   xmlns:inkscape="http://www.inkscape.org/namespaces/inkscape"
   height="383.5975"
   id="svg3430"
   version="1.1"
   viewBox="0 0 711.20123 383.5975"
   width="711.20123"
   xml:space="preserve"
   sodipodi:docname="php-version-audit-logo.svg"
   inkscape:version="0.92.4 (5da689c313, 2019-01-14)"
   inkscape:export-xdpi="87.842072"
   inkscape:export-ydpi="87.842072"><sodipodi:namedview
   pagecolor="#ffffff"
   bordercolor="#666666"
   borderopacity="1"
   objecttolerance="10"
   gridtolerance="10"
   guidetolerance="10"
   inkscape:pageopacity="0"
   inkscape:pageshadow="2"
   inkscape:window-width="1179"
   inkscape:window-height="658"
   id="namedview3793"
   showgrid="false"
   inkscape:zoom="0.98803885"
   inkscape:cx="181.67632"
   inkscape:cy="253.72383"
   inkscape:window-x="28"
   inkscape:window-y="0"
   inkscape:window-maximized="0"
   inkscape:current-layer="layer2"
   fit-margin-top="-0.2"
   fit-margin-left="0.6" />
  <title
   id="title3510">PHP Version Audit Logo</title>
  <metadata
   id="metadata3436">
    <rdf:RDF>
      <cc:Work
   rdf:about="">
        <dc:format>image/svg+xml</dc:format>
        <dc:type
   rdf:resource="http://purl.org/dc/dcmitype/StillImage" />
        <dc:title>PHP Version Audit Logo</dc:title>
        <dc:creator>
          <cc:Agent>
            <dc:title>Daniel White</dc:title>
          </cc:Agent>
        </dc:creator>
        <dc:description />
        <dc:contributor>
          <cc:Agent>
            <dc:title />
          </cc:Agent>
        </dc:contributor>
        <cc:license
   rdf:resource="http://creativecommons.org/licenses/by-sa/4.0/" />
        <dc:rights>
          <cc:Agent>
            <dc:title>Copyright Daniel White 2019 - All rights reserved.</dc:title>
          </cc:Agent>
        </dc:rights>
        <dc:date>2019</dc:date>
      <dc:source>https://github.com/lightswitch05/php-version-audit</dc:source></cc:Work>

    <cc:License
   rdf:about="http://creativecommons.org/licenses/by-sa/4.0/"><cc:permits
     rdf:resource="http://creativecommons.org/ns#Reproduction" /><cc:permits
     rdf:resource="http://creativecommons.org/ns#Distribution" /><cc:requires
     rdf:resource="http://creativecommons.org/ns#Notice" /><cc:requires
     rdf:resource="http://creativecommons.org/ns#Attribution" /><cc:permits
     rdf:resource="http://creativecommons.org/ns#DerivativeWorks" /><cc:requires
     rdf:resource="http://creativecommons.org/ns#ShareAlike" /></cc:License></rdf:RDF>
  </metadata>
  <defs
   id="defs3434"><linearGradient
     id="linearGradient6434"
     osb:paint="solid"><stop
       style="stop-color:#ff0000;stop-opacity:1;"
       offset="0"
       id="stop6432" /></linearGradient><clipPath
     clipPathUnits="userSpaceOnUse"
     id="clipPath3444">
      <path
   d="M 11.52,162 C 11.52,81.677 135.307,16.561 288,16.561 v 0 c 152.693,0 276.481,65.116 276.481,145.439 v 0 c 0,80.322 -123.788,145.439 -276.481,145.439 v 0 C 135.307,307.439 11.52,242.322 11.52,162"
   id="path3446"
   inkscape:connector-curvature="0" />
    </clipPath><radialGradient
     cx="0"
     cy="0"
     fx="0"
     fy="0"
     gradientTransform="matrix(363.05789,0,0,-363.05789,177.52002,256.30713)"
     gradientUnits="userSpaceOnUse"
     id="radialGradient3452"
     r="1"
     spreadMethod="pad">
      <stop
   id="stop3454"
   offset="0"
   style="stop-opacity:1;stop-color:#aeb2d5" />
      <stop
   id="stop3456"
   offset="0.3"
   style="stop-opacity:1;stop-color:#aeb2d5" />
      <stop
   id="stop3458"
   offset="0.75"
   style="stop-opacity:1;stop-color:#484c89" />
      <stop
   id="stop3460"
   offset="1"
   style="stop-opacity:1;stop-color:#484c89" />
    </radialGradient><clipPath
     clipPathUnits="userSpaceOnUse"
     id="clipPath3468">
      <path
   d="M 0,324 H 576 V 0 H 0 Z"
   id="path3470"
   inkscape:connector-curvature="0" />
    </clipPath><clipPath
     clipPathUnits="userSpaceOnUse"
     id="clipPath3480">
      <path
   d="M 0,324 H 576 V 0 H 0 Z"
   id="path3482"
   inkscape:connector-curvature="0" />
    </clipPath></defs>

<g
   inkscape:groupmode="layer"
   id="layer3"
   inkscape:label="php-logo"
   sodipodi:insensitive="true"
   transform="translate(0,-2.5824218e-5)"><g
     id="g3438"
     transform="matrix(1.25,0,0,-1.25,-4.4,394.29875)">
    <g
   id="g3440">
      <g
   clip-path="url(#clipPath3444)"
   id="g3442">
        <g
   id="g3448">
          <g
   id="g3450">
            <path
   d="M 11.52,162 C 11.52,81.677 135.307,16.561 288,16.561 v 0 c 152.693,0 276.481,65.116 276.481,145.439 v 0 c 0,80.322 -123.788,145.439 -276.481,145.439 v 0 C 135.307,307.439 11.52,242.322 11.52,162"
   id="path3462"
   style="fill:url(#radialGradient3452);stroke:none"
   inkscape:connector-curvature="0" />
          </g>
        </g>
      </g>
    </g>
    <g
   id="g3464">
      <g
   clip-path="url(#clipPath3468)"
   id="g3466">
        <g
   id="g3472"
   transform="translate(288,27.3594)">
          <path
   d="M 0,0 C 146.729,0 265.68,60.281 265.68,134.641 265.68,209 146.729,269.282 0,269.282 -146.729,269.282 -265.68,209 -265.68,134.641 -265.68,60.281 -146.729,0 0,0"
   id="path3474"
   style="fill:#777bb3;fill-opacity:1;fill-rule:nonzero;stroke:none"
   inkscape:connector-curvature="0" />
        </g>
      </g>
    </g>
    <g
   id="g3476">
      <g
   clip-path="url(#clipPath3480)"
   id="g3478">
        <g
   id="g3484"
   transform="translate(161.7344,145.3066)">
          <path
   d="m 0,0 c 12.065,0 21.072,2.225 26.771,6.611 5.638,4.341 9.532,11.862 11.573,22.353 1.903,9.806 1.178,16.653 -2.154,20.348 C 32.783,53.086 25.417,55 14.297,55 H -4.984 L -15.673,0 Z m -63.063,-67.75 c -0.895,0 -1.745,0.4 -2.314,1.092 -0.57,0.691 -0.801,1.601 -0.63,2.48 L -37.679,81.573 C -37.405,82.982 -36.17,84 -34.734,84 H 26.32 C 45.508,84 59.79,78.79 68.767,68.513 77.792,58.182 80.579,43.741 77.05,25.592 75.614,18.198 73.144,11.331 69.709,5.183 66.27,-0.972 61.725,-6.667 56.198,-11.747 49.582,-17.939 42.094,-22.429 33.962,-25.071 25.959,-27.678 15.681,-29 3.414,-29 h -24.722 l -7.06,-36.322 c -0.274,-1.41 -1.508,-2.428 -2.944,-2.428 z"
   id="path3486"
   style="fill:#000000;fill-opacity:1;fill-rule:nonzero;stroke:none"
   inkscape:connector-curvature="0" />
        </g>
        <g
   id="g3488"
   transform="translate(159.2236,197.3071)">
          <path
   d="m 0,0 h 16.808 c 13.421,0 18.083,-2.945 19.667,-4.7 2.628,-2.914 3.124,-9.058 1.435,-17.767 C 36.012,-32.217 32.494,-39.13 27.452,-43.012 22.29,-46.986 13.898,-49 2.511,-49 H -9.523 Z m 28.831,35 h -61.055 c -2.872,0 -5.341,-2.036 -5.889,-4.855 l -28.328,-145.751 c -0.342,-1.759 0.12,-3.578 1.259,-4.961 1.14,-1.383 2.838,-2.183 4.63,-2.183 h 31.75 c 2.873,0 5.342,2.036 5.89,4.855 L -16.324,-84 H 5.925 c 12.582,0 23.174,1.372 31.479,4.077 8.541,2.775 16.399,7.48 23.354,13.984 5.752,5.292 10.49,11.232 14.08,17.657 3.591,6.427 6.171,13.594 7.668,21.302 3.715,19.104 0.697,34.402 -8.969,45.466 C 63.965,29.444 48.923,35 28.831,35 M -16.802,-55 H 2.511 c 12.801,0 22.336,2.411 28.601,7.234 6.266,4.824 10.492,12.875 12.688,24.157 2.101,10.832 1.144,18.476 -2.871,22.929 C 36.909,3.773 28.87,6 16.808,6 H -4.946 L -16.802,-55 M 28.831,29 C 47.198,29 60.597,24.18 69.019,14.539 77.44,4.898 79.976,-8.559 76.616,-25.836 75.233,-32.953 72.894,-39.46 69.601,-45.355 66.304,-51.254 61.999,-56.648 56.679,-61.539 50.339,-67.472 43.296,-71.7 35.546,-74.218 27.796,-76.743 17.925,-78 5.925,-78 h -27.196 l -7.531,-38.75 h -31.75 L -32.224,29 h 61.055"
   id="path3490"
   style="fill:#ffffff;fill-opacity:1;fill-rule:nonzero;stroke:none"
   inkscape:connector-curvature="0" />
        </g>
        <g
   id="g3492"
   transform="translate(311.583,116.3066)">
          <path
   d="m 0,0 c -0.896,0 -1.745,0.4 -2.314,1.092 -0.571,0.691 -0.802,1.6 -0.631,2.48 L 9.586,68.061 C 10.778,74.194 10.484,78.596 8.759,80.456 7.703,81.593 4.531,83.5 -4.848,83.5 H -27.55 L -43.305,2.428 C -43.579,1.018 -44.814,0 -46.25,0 h -31.5 c -0.896,0 -1.745,0.4 -2.315,1.092 -0.57,0.691 -0.801,1.601 -0.63,2.48 l 28.328,145.751 c 0.274,1.409 1.509,2.427 2.945,2.427 h 31.5 c 0.896,0 1.745,-0.4 2.315,-1.091 0.57,-0.692 0.801,-1.601 0.63,-2.481 L -21.813,113 H 2.609 c 18.605,0 31.221,-3.28 38.569,-10.028 7.49,-6.884 9.827,-17.891 6.947,-32.719 L 34.945,2.428 C 34.671,1.018 33.437,0 32,0 Z"
   id="path3494"
   style="fill:#000000;fill-opacity:1;fill-rule:nonzero;stroke:none"
   inkscape:connector-curvature="0" />
        </g>
        <g
   id="g3496"
   transform="translate(293.6611,271.0571)">
          <path
   d="m 0,0 h -31.5 c -2.873,0 -5.342,-2.036 -5.89,-4.855 l -28.328,-145.751 c -0.342,-1.759 0.12,-3.578 1.26,-4.961 1.14,-1.383 2.838,-2.183 4.63,-2.183 h 31.5 c 2.872,0 5.342,2.036 5.89,4.855 l 15.283,78.645 h 20.229 c 9.363,0 11.328,-2 11.407,-2.086 0.568,-0.611 1.315,-3.441 0.082,-9.781 l -12.531,-64.489 c -0.342,-1.759 0.12,-3.578 1.26,-4.961 1.14,-1.383 2.838,-2.183 4.63,-2.183 h 32 c 2.872,0 5.342,2.036 5.89,4.855 l 13.179,67.825 c 3.093,15.921 0.447,27.864 -7.861,35.5 -7.928,7.281 -21.208,10.82 -40.599,10.82 H -0.253 L 5.89,-7.145 C 6.231,-5.386 5.77,-3.566 4.63,-2.184 3.49,-0.801 1.792,0 0,0 m 0,-6 -7.531,-38.75 h 28.062 c 17.657,0 29.836,-3.082 36.539,-9.238 6.703,-6.16 8.711,-16.141 6.032,-29.938 l -13.18,-67.824 h -32 l 12.531,64.488 c 1.426,7.336 0.902,12.34 -1.574,15.008 -2.477,2.668 -7.746,4.004 -15.805,4.004 h -25.176 l -16.226,-83.5 h -31.5 L -31.5,-6 H 0"
   id="path3498"
   style="fill:#ffffff;fill-opacity:1;fill-rule:nonzero;stroke:none"
   inkscape:connector-curvature="0" />
        </g>
        <g
   id="g3500"
   transform="translate(409.5498,145.3066)">
          <path
   d="m 0,0 c 12.065,0 21.072,2.225 26.771,6.611 5.638,4.34 9.532,11.861 11.574,22.353 1.903,9.806 1.178,16.653 -2.155,20.348 C 32.783,53.086 25.417,55 14.297,55 H -4.984 L -15.673,0 Z m -63.062,-67.75 c -0.895,0 -1.745,0.4 -2.314,1.092 -0.57,0.691 -0.802,1.601 -0.631,2.48 L -37.679,81.573 C -37.404,82.982 -36.17,84 -34.733,84 H 26.32 C 45.509,84 59.79,78.79 68.768,68.513 77.793,58.183 80.579,43.742 77.051,25.592 75.613,18.198 73.144,11.331 69.709,5.183 66.27,-0.972 61.725,-6.667 56.198,-11.747 49.582,-17.939 42.094,-22.429 33.962,-25.071 25.959,-27.678 15.681,-29 3.414,-29 h -24.723 l -7.057,-36.322 c -0.275,-1.41 -1.509,-2.428 -2.946,-2.428 z"
   id="path3502"
   style="fill:#000000;fill-opacity:1;fill-rule:nonzero;stroke:none"
   inkscape:connector-curvature="0" />
        </g>
        <g
   id="g3504"
   transform="translate(407.0391,197.3071)">
          <path
   d="M 0,0 H 16.808 C 30.229,0 34.891,-2.945 36.475,-4.7 39.104,-7.614 39.6,-13.758 37.91,-22.466 36.012,-32.217 32.493,-39.13 27.452,-43.012 22.29,-46.986 13.898,-49 2.511,-49 H -9.522 Z m 28.831,35 h -61.054 c -2.872,0 -5.341,-2.036 -5.889,-4.855 L -66.44,-115.606 c -0.342,-1.759 0.12,-3.578 1.259,-4.961 1.14,-1.383 2.838,-2.183 4.63,-2.183 h 31.75 c 2.872,0 5.342,2.036 5.89,4.855 L -16.324,-84 H 5.925 c 12.582,0 23.174,1.372 31.479,4.077 8.541,2.775 16.401,7.481 23.356,13.986 5.752,5.291 10.488,11.23 14.078,17.655 3.591,6.427 6.171,13.594 7.668,21.302 3.715,19.105 0.697,34.403 -8.969,45.467 C 63.965,29.444 48.924,35 28.831,35 M -16.801,-55 H 2.511 c 12.801,0 22.336,2.411 28.601,7.234 6.267,4.824 10.492,12.875 12.688,24.157 2.102,10.832 1.145,18.476 -2.871,22.929 C 36.909,3.773 28.87,6 16.808,6 H -4.946 L -16.801,-55 M 28.831,29 C 47.198,29 60.597,24.18 69.019,14.539 77.441,4.898 79.976,-8.559 76.616,-25.836 75.233,-32.953 72.894,-39.46 69.601,-45.355 66.304,-51.254 61.999,-56.648 56.679,-61.539 50.339,-67.472 43.296,-71.7 35.546,-74.218 27.796,-76.743 17.925,-78 5.925,-78 h -27.196 l -7.53,-38.75 h -31.75 L -32.223,29 h 61.054"
   id="path3506"
   style="fill:#ffffff;fill-opacity:1;fill-rule:nonzero;stroke:none"
   inkscape:connector-curvature="0" />
        </g>
      </g>
    </g>
  </g></g><g
   inkscape:groupmode="layer"
   id="layer4"
   inkscape:label="box"
   style="display:inline"
   sodipodi:insensitive="true"
   transform="translate(0,-2.5824218e-5)"><rect
     style="display:inline;fill:#ff5555;fill-opacity:0.73023251;stroke:#ff0000;stroke-width:3.32500005;stroke-linecap:butt;stroke-linejoin:round;stroke-miterlimit:4;stroke-dasharray:none;stroke-dashoffset:5;stroke-opacity:1;paint-order:normal"
     id="rect4637"
     width="642.37848"
     height="165.97977"
     x="-36.572308"
     y="182.41223"
     transform="rotate(-15)" /></g><g
   inkscape:groupmode="layer"
   id="layer2"
   inkscape:label="audit-font"
   style="display:none"
   transform="translate(0,-2.5824218e-5)"
   sodipodi:insensitive="true"><text
   xml:space="preserve"
   style="font-style:normal;font-weight:normal;font-size:40px;line-height:1.25;font-family:sans-serif;letter-spacing:0px;word-spacing:0px;fill:#000000;fill-opacity:1;stroke:none"
   x="58.702145"
   y="99.195732"
   id="text3799"><tspan
     sodipodi:role="line"
     id="tspan3797"
     x="58.702145"
     y="135.68895"
     style="line-height:50" /></text>




<text
   xml:space="preserve"
   style="font-style:normal;font-weight:normal;font-size:40px;line-height:1.25;font-family:sans-serif;letter-spacing:0px;word-spacing:0px;display:inline;fill:#000000;fill-opacity:1;stroke:#000000;stroke-width:3;stroke-linecap:square;stroke-linejoin:bevel;stroke-miterlimit:4;stroke-dasharray:none;stroke-opacity:1;paint-order:fill markers stroke"
   x="-16.830685"
   y="333.31693"
   id="text3803"
   transform="rotate(-15)"><tspan
     sodipodi:role="line"
     id="tspan3801"
     x="-16.830685"
     y="333.31693"
     style="font-style:normal;font-variant:normal;font-weight:normal;font-stretch:normal;font-size:206.66667175px;font-family:Stencil;-inkscape-font-specification:Stencil;fill:#ff0000;stroke:#000000;stroke-width:3;stroke-linecap:square;stroke-linejoin:bevel;stroke-miterlimit:4;stroke-dasharray:none;stroke-opacity:1;paint-order:fill markers stroke">AUDIT</tspan></text>




</g><g
   transform="translate(0,-2.5824218e-5)"
   style="display:inline"
   inkscape:label="audit-path"
   id="g72"
   inkscape:groupmode="layer"
   sodipodi:insensitive="true"><text
   id="text66"
   y="99.195732"
   x="58.702145"
   style="font-style:normal;font-weight:normal;font-size:40px;line-height:1.25;font-family:sans-serif;letter-spacing:0px;word-spacing:0px;fill:#000000;fill-opacity:1;stroke:none"
   xml:space="preserve"><tspan
     style="line-height:50"
     y="135.68895"
     x="58.702145"
     id="tspan64"
     sodipodi:role="line" /></text>




<g
   aria-label="AUDIT"
   transform="rotate(-15)"
   style="font-style:normal;font-weight:normal;font-size:40px;line-height:1.25;font-family:sans-serif;letter-spacing:0px;word-spacing:0px;display:inline;fill:#000000;fill-opacity:1;stroke:#000000;stroke-width:3;stroke-linecap:square;stroke-linejoin:bevel;stroke-miterlimit:4;stroke-dasharray:none;stroke-opacity:1;paint-order:fill markers stroke"
   id="text70"><path
     d="M 31.909551,195.57278 H 72.57687 l 28.05339,118.57097 q 0.80729,3.12825 1.8164,5.55013 0.90821,1.91732 4.03646,3.12825 2.6237,1.11003 3.63281,2.22006 1.00912,1.11002 1.00912,3.02734 0,5.2474 -7.8711,5.2474 H 52.899135 q -3.027344,0 -4.84375,-1.41277 -1.816407,-1.51367 -1.816407,-3.93554 0,-2.01823 0.807292,-3.02735 0.807292,-1.00911 3.632813,-2.52278 2.018229,-1.00912 2.825521,-2.22005 0.807291,-1.21094 0.807291,-3.02735 0,-1.71549 -0.302734,-3.02734 L 50.779994,299.51159 H 22.625697 l 2.724609,-12.00847 H 47.954473 L 29.386764,205.4621 Z m -6.962891,25.63151 5.146485,20.88867 -17.861329,65.18881 q -0.807292,2.82552 -0.807292,5.24739 0,6.35743 5.953777,9.08204 l 3.531901,1.61458 q 3.330078,1.51367 3.330078,5.04557 0,5.04558 -7.366537,5.04558 H -8.7577678 q -3.7337242,0 -5.9537762,-1.51368 -2.119141,-1.61458 -2.119141,-4.33919 0,-2.92643 4.440105,-4.84375 4.1373695,-1.81641 6.0546873,-3.22917 2.0182292,-1.51367 3.8346355,-4.03645 2.82552088,-4.13737 4.6419272,-10.99935 z"
     style="font-style:normal;font-variant:normal;font-weight:normal;font-stretch:normal;font-size:206.66667175px;font-family:Stencil;-inkscape-font-specification:Stencil;fill:#ff0000;stroke:#000000;stroke-width:3;stroke-linecap:square;stroke-linejoin:bevel;stroke-miterlimit:4;stroke-dasharray:none;stroke-opacity:1;paint-order:fill markers stroke"
     id="path74"
     inkscape:connector-curvature="0" /><path
     d="m 127.97726,293.05325 v -79.11458 q 0,-3.5319 -1.21093,-5.14649 -0.60547,-0.9082 -1.21094,-1.11002 -0.50456,-0.30274 -3.83464,-1.41276 -4.03646,-1.31185 -4.03646,-5.34831 0,-2.6237 1.91732,-3.93555 2.01823,-1.41276 5.65104,-1.41276 h 2.6237 45.00651 2.6237 l 3.63281,0.40365 q 1.7155,0.50455 2.82553,1.8164 1.11002,1.31185 1.11002,3.12826 0,4.03646 -4.03646,5.34831 -3.33008,1.11002 -3.93554,1.41276 -0.50456,0.20182 -1.11003,1.11002 -1.21094,1.61459 -1.21094,5.14649 v 84.66471 q 0,8.57748 0.40365,12.00847 0.50456,3.33007 1.91732,6.05468 1.31184,2.52279 2.92643,3.63282 1.61458,1.11002 6.1556,2.52278 v 13.2194 h -2.22005 q -13.11849,0 -21.79688,-2.32096 -10.19206,-2.72461 -17.86133,-8.07292 -7.66927,-5.3483 -10.89844,-12.00846 -3.43099,-7.0638 -3.43099,-20.58594 z m 65.49154,42.98828 v -13.2194 q 10.09115,-1.31185 16.85222,-8.27474 7.66927,-7.972 7.66927,-22.9069 v -65.79427 q 0,-13.82487 -10.59571,-19.27409 -3.12825,-1.61458 -4.13737,-2.72461 -0.9082,-1.21094 -0.9082,-3.43099 0,-2.6237 1.91732,-3.73372 1.91732,-1.11003 6.25651,-1.11003 h 24.72331 q 3.12825,0 4.13737,0.20182 1.11002,0.10092 2.11914,0.70638 2.62369,1.51368 2.62369,4.13737 0,2.22006 -1.61458,3.73373 -0.50456,0.50456 -4.33919,2.72461 -4.44011,2.42187 -6.96289,7.46745 -2.52279,4.94466 -2.52279,11.30208 v 65.89518 q 0,16.95313 -7.46745,27.85157 -5.44922,8.07291 -15.64127,12.91666 -5.04558,2.42188 -12.10938,3.5319 z"
     style="font-style:normal;font-variant:normal;font-weight:normal;font-stretch:normal;font-size:206.66667175px;font-family:Stencil;-inkscape-font-specification:Stencil;fill:#ff0000;stroke:#000000;stroke-width:3;stroke-linecap:square;stroke-linejoin:bevel;stroke-miterlimit:4;stroke-dasharray:none;stroke-opacity:1;paint-order:fill markers stroke"
     id="path76"
     inkscape:connector-curvature="0" /><path
     d="m 314.56256,195.57278 v 137.74415 h -44.9056 -2.6237 q -3.63281,0 -5.65104,-1.31185 -1.91732,-1.41276 -1.91732,-3.93555 0,-4.13737 4.03646,-5.44922 3.33008,-1.11003 3.83463,-1.31185 0.60547,-0.30273 1.21094,-1.21094 1.21094,-1.61458 1.21094,-5.14648 V 213.93867 q 0,-3.5319 -1.21094,-5.14649 -0.60547,-0.9082 -1.21094,-1.11002 -0.50455,-0.30274 -3.83463,-1.41276 -4.03646,-1.31185 -4.03646,-5.44922 0,-2.52279 1.91732,-3.83464 2.01823,-1.41276 5.65104,-1.41276 h 2.6237 z m 20.38411,108.88347 V 224.8371 q 0,-7.36653 -2.11914,-11.70572 -1.31185,-2.82553 -3.22917,-4.13737 -1.91731,-1.31185 -6.05468,-2.22006 v -11.20117 q 5.3483,0 9.08203,0.40365 12.81575,1.41276 24.82422,10.89843 11.90755,9.18295 17.6595,23.91602 5.95378,14.9349 5.95378,33.09896 0,20.58594 -7.56836,36.63086 -7.56836,15.94401 -21.69596,25.12695 -6.86198,4.44011 -12.81576,6.05469 -5.85286,1.61459 -15.43945,1.61459 v -10.89844 q 4.23828,-1.11003 5.85286,-2.01823 1.7155,-0.90821 2.92643,-2.82552 1.51368,-2.22005 2.01823,-4.94466 0.60547,-2.82553 0.60547,-8.17383 z"
     style="font-style:normal;font-variant:normal;font-weight:normal;font-stretch:normal;font-size:206.66667175px;font-family:Stencil;-inkscape-font-specification:Stencil;fill:#ff0000;stroke:#000000;stroke-width:3;stroke-linecap:square;stroke-linejoin:bevel;stroke-miterlimit:4;stroke-dasharray:none;stroke-opacity:1;paint-order:fill markers stroke"
     id="path78"
     inkscape:connector-curvature="0" /><path
     d="m 448.67387,333.31693 h -45.00651 -2.6237 q -3.63281,0 -5.65104,-1.31185 -1.91731,-1.41276 -1.91731,-3.93555 0,-4.13737 4.03645,-5.44922 3.33008,-1.11003 3.83464,-1.31185 0.60547,-0.30273 1.21094,-1.21094 1.21093,-1.61458 1.21093,-5.14648 V 213.93867 q 0,-3.5319 -1.21093,-5.14649 -0.60547,-0.9082 -1.21094,-1.11002 -0.50456,-0.30274 -3.83464,-1.41276 -4.03645,-1.31185 -4.03645,-5.44922 0,-2.52279 1.91731,-3.83464 2.01823,-1.41276 5.65104,-1.41276 h 2.6237 45.00651 2.6237 q 3.63281,0 5.55013,1.41276 2.01823,1.31185 2.01823,3.83464 0,4.13737 -4.03646,5.44922 -3.33007,1.11002 -3.93554,1.41276 -0.50456,0.20182 -1.11003,1.11002 -1.21094,1.61459 -1.21094,5.14649 v 101.01237 q 0,3.5319 1.21094,5.14648 0.60547,0.90821 1.11003,1.21094 0.60547,0.20182 3.93554,1.31185 4.03646,1.31185 4.03646,5.44922 0,2.52279 -2.01823,3.93555 -1.91732,1.31185 -5.55013,1.31185 z"
     style="font-style:normal;font-variant:normal;font-weight:normal;font-stretch:normal;font-size:206.66667175px;font-family:Stencil;-inkscape-font-specification:Stencil;fill:#ff0000;stroke:#000000;stroke-width:3;stroke-linecap:square;stroke-linejoin:bevel;stroke-miterlimit:4;stroke-dasharray:none;stroke-opacity:1;paint-order:fill markers stroke"
     id="path80"
     inkscape:connector-curvature="0" /><path
     d="m 550.79629,195.57278 v 118.57097 q 0,3.93554 1.51367,5.65104 0.80729,1.00911 1.51367,1.31185 0.70638,0.20182 4.64193,1.21094 4.84375,1.11002 4.84375,5.55013 0,2.62369 -2.6237,4.23828 -1.91731,1.21094 -6.45833,1.21094 h -3.33008 -45.00651 -3.33008 q -4.4401,0 -6.76107,-1.31185 -2.22005,-1.41276 -2.22005,-4.13737 0,-4.44011 4.84375,-5.55013 3.93555,-1.00912 4.64193,-1.21094 0.70638,-0.30274 1.41276,-1.31185 1.51367,-1.7155 1.51367,-5.65104 V 195.57278 Z m 34.91537,0 v 41.27279 q 0,2.92643 -1.7155,4.74284 -1.61458,1.8164 -4.23828,1.8164 -2.52279,0 -4.23828,-1.61458 -1.61458,-1.71549 -2.11914,-4.64193 l -1.00912,-6.1556 q -1.51367,-9.38476 -5.85286,-16.24674 -2.72461,-4.23828 -7.36654,-6.96289 v -12.21029 z m -114.4336,0 h 26.53971 v 12.21029 q -4.74283,2.72461 -7.36653,6.96289 -4.3392,6.86198 -5.85287,16.24674 l -1.00911,6.1556 q -0.50456,2.92644 -2.22005,4.64193 -1.61459,1.61458 -4.13737,1.61458 -2.6237,0 -4.3392,-1.8164 -1.61458,-1.81641 -1.61458,-4.74284 z"
     style="font-style:normal;font-variant:normal;font-weight:normal;font-stretch:normal;font-size:206.66667175px;font-family:Stencil;-inkscape-font-specification:Stencil;fill:#ff0000;stroke:#000000;stroke-width:3;stroke-linecap:square;stroke-linejoin:bevel;stroke-miterlimit:4;stroke-dasharray:none;stroke-opacity:1;paint-order:fill markers stroke"
     id="path82"
     inkscape:connector-curvature="0" /></g>



</g></svg>
